<svg width="12" height="12" viewBox="0 0 12 12" fill="none" xmlns="http://www.w3.org/2000/svg">
<path d="M8.66595 5.97943C8.66644 6.06437 8.65016 6.14858 8.61804 6.22721C8.58592 6.30585 8.5386 6.37737 8.47878 6.43768L4.6063 10.3102C4.48476 10.4317 4.31993 10.5 4.14805 10.5C3.97618 10.5 3.81134 10.4317 3.68981 10.3102C3.56828 10.1886 3.5 10.0238 3.5 9.85192C3.5 9.68004 3.56828 9.51521 3.68981 9.39367L7.1105 5.97943L3.69627 2.5652C3.59053 2.44173 3.53528 2.28291 3.54155 2.12047C3.54783 1.95804 3.61516 1.80395 3.73011 1.68901C3.84505 1.57406 3.99914 1.50673 4.16157 1.50045C4.32401 1.49418 4.48283 1.54943 4.6063 1.65516L8.47878 5.52764C8.59801 5.64786 8.66524 5.81012 8.66595 5.97943Z" fill="#656565"/>
</svg>
