<svg width="22" height="22" viewBox="0 0 22 22" fill="none" xmlns="http://www.w3.org/2000/svg">
<path d="M17.9411 5.10325C17.0869 4.17687 15.9149 3.66666 14.6407 3.66666C13.6883 3.66666 12.816 3.96778 12.0481 4.56159C11.6606 4.86129 11.3095 5.22803 11 5.656C10.6906 5.22813 10.3394 4.86129 9.95177 4.56159C9.18397 3.96778 8.31172 3.66666 7.35927 3.66666C6.08506 3.66666 4.91295 4.17687 4.05882 5.10325C3.2149 6.01881 2.75 7.26962 2.75 8.62539C2.75 10.0208 3.27004 11.2982 4.3865 12.6454C5.38526 13.8505 6.82073 15.0739 8.48304 16.4904C9.05068 16.9742 9.69408 17.5226 10.3621 18.1067C10.5387 18.2613 10.7653 18.3465 11 18.3464C11.2348 18.3464 11.4614 18.2613 11.6376 18.1069C12.3057 17.5227 12.9494 16.9741 13.5173 16.4901C15.1794 15.0737 16.6148 13.8505 17.6136 12.6453C18.7301 11.2982 19.25 10.0208 19.25 8.62526C19.25 7.26962 18.7851 6.01881 17.9411 5.10325Z" fill="#A1A5AD"/>
</svg>
